<svg
      xmlns="http://www.w3.org/2000/svg"
      xmlnsXlink="http://www.w3.org/1999/xlink"
      viewBox="0 0 48 48"
    >
      <defs>
        <linearGradient id="linearGradient4750">
          <stop offset="0" stopColor="#fff"></stop>
          <stop offset="0.379" stopColor="#fefefe"></stop>
          <stop offset="1" stopColor="#1d1d1d"></stop>
        </linearGradient>
        <radialGradient
          id="radialGradient3968"
          cx="18.248"
          cy="15.716"
          r="29.993"
          gradientTransform="scale(.99999 1)"
          gradientUnits="userSpaceOnUse"
        >
          <stop offset="0" stopColor="#d3e9ff"></stop>
          <stop offset="0.155" stopColor="#d3e9ff"></stop>
          <stop offset="0.75" stopColor="#4074ae"></stop>
          <stop offset="1" stopColor="#36486c"></stop>
        </radialGradient>
        <radialGradient
          id="radialGradient4120"
          cx="15.116"
          cy="63.965"
          r="12.289"
          gradientTransform="scale(1.644 .60828)"
          gradientUnits="userSpaceOnUse"
        >
          <stop offset="0" stopColor="#000"></stop>
          <stop offset="1" stopColor="#000" stopOpacity="0"></stop>
        </radialGradient>
        <radialGradient
          id="radialGradient4132"
          cx="15.601"
          cy="12.142"
          r="43.527"
          gradientTransform="scale(.99999 1)"
          gradientUnits="userSpaceOnUse"
        >
          <stop offset="0" stopColor="#fff"></stop>
          <stop offset="1" stopColor="#fff" stopOpacity="0.165"></stop>
        </radialGradient>
        <radialGradient
          id="radialGradient4356"
          cx="11.827"
          cy="10.476"
          r="32.665"
          gradientTransform="scale(1.1795 .84779)"
          gradientUnits="userSpaceOnUse"
        >
          <stop offset="0" stopColor="#fff"></stop>
          <stop offset="1" stopColor="#fff" stopOpacity="0"></stop>
        </radialGradient>
        <radialGradient
          id="radialGradient4756"
          cx="18.634"
          cy="17.486"
          r="40.693"
          fx="18.934"
          fy="17.81"
          gradientTransform="scale(1.0368 .96449)"
          gradientUnits="userSpaceOnUse"
          xlinkHref="#linearGradient4750"
        ></radialGradient>
      </defs>
      <g>
        <path
          fill="url(#radialGradient4120)"
          d="M45.053 38.909a20.203 7.475 0 11-40.406 0 20.203 7.475 0 1140.406 0z"
          transform="matrix(1 0 0 1.2432 0 -10.272)"
        ></path>
        <path
          fill="url(#radialGradient3968)"
          stroke="#39396c"
          d="M43.96 23.485c0 10.71-8.682 19.392-19.39 19.392-10.71 0-19.391-8.682-19.391-19.392 0-10.709 8.681-19.39 19.391-19.39 10.708 0 19.39 8.681 19.39 19.39z"
        ></path>
        <path
          fill="url(#radialGradient4356)"
          d="M30.709 15.271a12.93 9.293 0 11-25.86 0 12.93 9.293 0 1125.86 0z"
          opacity="0.422"
          transform="matrix(.83594 0 0 1 9.887 0)"
        ></path>
        <g
          fill="#000"
          fillOpacity="0.713"
          transform="translate(.121 .233) scale(.98237)"
        >
          <g>
            <g>
              <path d="M44.071 20.714l-.545.618c-.334-.394-.709-.725-1.089-1.071l-.836.123-.764-.863v1.068l.654.495.436.494.582-.658.436.823v.822l-.655.74-1.199.823-.908.907-.582-.661.291-.74-.582-.658-.981-2.098-.836-.945-.219.246.328 1.194.618.699c.352 1.017.701 1.99 1.164 2.963.718 0 1.394-.077 2.107-.166v.576l-.872 2.139-.8.904-.654 1.401v2.303l.219.906-.364.41-.8.494-.836.699.691.782-.945.824.182.533-1.418 1.606h-.945l-.8.494h-.509v-.659l-.217-1.318c-.281-.826-.574-1.647-.872-2.467 0-.605.036-1.205.072-1.81l.364-.823-.509-.988.037-1.357-.692-.782.346-1.13-.563-.639h-.982l-.327-.37-.981.618-.4-.454-.909.782c-.617-.7-1.235-1.399-1.854-2.098l-.726-1.729.654-.986-.363-.411.799-1.894a67.733 67.733 0 012.035-2.385l1.236-.329 1.381-.165.945.248 1.345 1.356.473-.534.653-.082 1.236.411h.946l.654-.576.291-.411-.655-.412-1.091-.082c-.303-.419-.584-.861-.944-1.234l-.364.164-.145 1.07-.655-.74-.144-.824-.727-.574h-.292l.728.822-.291.74-.581.164.363-.74-.655-.328-.581-.658-1.091.246-.145.328-.654.412-.363.906-.909.452-.4-.452h-.436v-1.482l.946-.494h.726l-.146-.575-.58-.576.98-.206.545-.617.436-.741h.801l-.219-.575.509-.329v.658l1.09.246 1.09-.904.073-.412.945-.658c-.342.043-.684.074-1.018.165v-.741l.363-.823h-.363l-.798.74-.219.412.219.576-.365.987-.581-.329-.508-.576-.8.576-.291-1.316 1.381-.905v-.494l.872-.576 1.381-.33.946.33 1.744.33-.436.492h-.945l.945.988.727-.823.221-.361s2.787 2.497 4.379 5.23c1.593 2.733 2.341 5.955 2.341 6.609z"></path>
            </g>
          </g>
          <g>
            <g>
              <path d="M26.07 9.236l-.073.493.51.33.871-.576-.436-.494-.582.33-.29-.083"></path>
            </g>
          </g>
          <g>
            <g>
              <path d="M26.87 5.863l-1.89-.74-2.18.246-2.691.74-.508.494 1.671 1.152v.658l-.654.658.873 1.729.58-.33.729-1.151a24.99 24.99 0 003.197-1.235l.873-2.22"></path>
            </g>
          </g>
          <g>
            <g>
              <path d="M28.833 12.775l-.291-.741-.51.165.147.904.654-.328"></path>
            </g>
          </g>
          <g>
            <g>
              <path d="M29.123 12.609l-.145.988.799-.165.581-.575-.508-.494c-.171-.455-.368-.88-.582-1.317h-.435v.494l.29.329v.74"></path>
            </g>
          </g>
          <g>
            <g>
              <path d="M18.365 28.242l-.582-1.152-1.09-.247-.582-1.562-1.453.164-1.236-.904-1.309 1.151v.182c-.396-.115-.883-.13-1.235-.347l-.291-.822v-.906l-.872.082.218-1.727h-.51l-.508.658-.509.246-.727-.41-.073-.905.146-.988 1.09-.822h.873l.145-.494 1.09.246.8.988.145-1.646 1.382-1.152.508-1.234 1.018-.411.581-.822 1.309-.248.654-.987h-1.963l1.236-.576h.872l1.236-.412.146-.492-.437-.412-.509-.165.146-.494-.363-.74-.873.328.146-.657-1.018-.577-.799 1.398.072.494-.799.331-.51 1.069-.218-.987-1.381-.577-.218-.74 1.817-1.07.8-.74.073-.905-.436-.247-.582-.083-.363.906s-.608.119-.764.157c-1.996 1.84-6.03 5.81-6.966 13.306.037.174.679 1.182.679 1.182l1.526.904 1.527.412.654.824 1.018.74.581-.082.436.196v.133l-.581 1.563-.437.658.146.33-.363 1.233 1.308 2.386 1.308 1.153.582.822-.073 1.728.437.987-.437 1.892s-.034-.01.022.178c.056.19 2.329 1.451 2.473 1.344.144-.109.267-.205.267-.205l-.145-.41.581-.577.219-.576.945-.33.727-1.81-.218-.493.508-.74 1.09-.248.582-1.316-.145-1.645.872-1.234.145-1.235c-1.193-.59-2.376-1.2-3.561-1.81"></path>
            </g>
          </g>
          <g>
            <g>
              <path d="M16.766 9.565l.726.494h.582v-.576l-.726-.33-.582.412"></path>
            </g>
          </g>
          <g>
            <g>
              <path d="M14.876 8.907l-.364.905h.727l.364-.823c.314-.222.626-.445.945-.658l.727.247c.484.33.969.658 1.454.987l.727-.658-.8-.329-.364-.74-1.381-.165-.073-.412-.654.165-.29.576-.364-.74-.145.328.073.823-.582.494"></path>
            </g>
          </g>
          <g>
            <g>
              <path d="M17.492 6.85l.364-.329.727-.165c.498-.242.998-.405 1.527-.576l-.29-.494-.939.135-.443.442-.731.106-.65.305-.316.153-.193.259.944.164"></path>
            </g>
          </g>
          <g>
            <g>
              <path d="M18.728 14.666l.437-.658-.655-.493.218 1.151"></path>
            </g>
          </g>
        </g>
        <g
          fill="url(#radialGradient4756)"
          color="#000"
          transform="translate(-.081 .03) scale(.98237)"
        >
          <g>
            <g fill="url(#radialGradient4756)" color="#000">
              <path
                fill="url(#radialGradient4756)"
                d="M44.071 20.714l-.545.618c-.334-.394-.709-.725-1.089-1.071l-.836.123-.764-.863v1.068l.654.495.436.494.582-.658.436.823v.822l-.655.74-1.199.823-.908.907-.582-.661.291-.74-.582-.658-.981-2.098-.836-.945-.219.246.328 1.194.618.699c.352 1.017.701 1.99 1.164 2.963.718 0 1.394-.077 2.107-.166v.576l-.872 2.139-.8.904-.654 1.401v2.303l.219.906-.364.41-.8.494-.836.699.691.782-.945.824.182.533-1.418 1.606h-.945l-.8.494h-.509v-.659l-.217-1.318c-.281-.826-.574-1.647-.872-2.467 0-.605.036-1.205.072-1.81l.364-.823-.509-.988.037-1.357-.692-.782.346-1.13-.563-.639h-.982l-.327-.37-.981.618-.4-.454-.909.782c-.617-.7-1.235-1.399-1.854-2.098l-.726-1.729.654-.986-.363-.411.799-1.894a67.733 67.733 0 012.035-2.385l1.236-.329 1.381-.165.945.248 1.345 1.356.473-.534.653-.082 1.236.411h.946l.654-.576.291-.411-.655-.412-1.091-.082c-.303-.419-.584-.861-.944-1.234l-.364.164-.145 1.07-.655-.74-.144-.824-.727-.574h-.292l.728.822-.291.74-.581.164.363-.74-.655-.328-.581-.658-1.091.246-.145.328-.654.412-.363.906-.909.452-.4-.452h-.436v-1.482l.946-.494h.726l-.146-.575-.58-.576.98-.206.545-.617.436-.741h.801l-.219-.575.509-.329v.658l1.09.246 1.09-.904.073-.412.945-.658c-.342.043-.684.074-1.018.165v-.741l.363-.823h-.363l-.798.74-.219.412.219.576-.365.987-.581-.329-.508-.576-.8.576-.291-1.316 1.381-.905v-.494l.872-.576 1.381-.33.946.33 1.744.33-.436.492h-.945l.945.988.727-.823.221-.361s2.787 2.497 4.379 5.23c1.593 2.733 2.341 5.955 2.341 6.609z"
                color="#000"
              ></path>
            </g>
          </g>
          <g>
            <g fill="url(#radialGradient4756)" color="#000">
              <path
                fill="url(#radialGradient4756)"
                d="M26.07 9.236l-.073.493.51.33.871-.576-.436-.494-.582.33-.29-.083"
                color="#000"
              ></path>
            </g>
          </g>
          <g>
            <g fill="url(#radialGradient4756)" color="#000">
              <path
                fill="url(#radialGradient4756)"
                d="M26.87 5.863l-1.89-.74-2.18.246-2.691.74-.508.494 1.671 1.152v.658l-.654.658.873 1.729.58-.33.729-1.151a24.99 24.99 0 003.197-1.235l.873-2.22"
                color="#000"
              ></path>
            </g>
          </g>
          <g>
            <g fill="url(#radialGradient4756)" color="#000">
              <path
                fill="url(#radialGradient4756)"
                d="M28.833 12.775l-.291-.741-.51.165.147.904.654-.328"
                color="#000"
              ></path>
            </g>
          </g>
          <g>
            <g fill="url(#radialGradient4756)" color="#000">
              <path
                fill="url(#radialGradient4756)"
                d="M29.123 12.609l-.145.988.799-.165.581-.575-.508-.494c-.171-.455-.368-.88-.582-1.317h-.435v.494l.29.329v.74"
                color="#000"
              ></path>
            </g>
          </g>
          <g>
            <g fill="url(#radialGradient4756)" color="#000">
              <path
                fill="url(#radialGradient4756)"
                d="M18.365 28.242l-.582-1.152-1.09-.247-.582-1.562-1.453.164-1.236-.904-1.309 1.151v.182c-.396-.115-.883-.13-1.235-.347l-.291-.822v-.906l-.872.082.218-1.727h-.51l-.508.658-.509.246-.727-.41-.073-.905.146-.988 1.09-.822h.873l.145-.494 1.09.246.8.988.145-1.646 1.382-1.152.508-1.234 1.018-.411.581-.822 1.309-.248.654-.987h-1.963l1.236-.576h.872l1.236-.412.146-.492-.437-.412-.509-.165.146-.494-.363-.74-.873.328.146-.657-1.018-.577-.799 1.398.072.494-.799.331-.51 1.069-.218-.987-1.381-.577-.218-.74 1.817-1.07.8-.74.073-.905-.436-.247-.582-.083-.363.906s-.608.119-.764.157c-1.996 1.84-6.03 5.81-6.966 13.306.037.174.679 1.182.679 1.182l1.526.904 1.527.412.654.824 1.018.74.581-.082.436.196v.133l-.581 1.563-.437.658.146.33-.363 1.233 1.308 2.386 1.308 1.153.582.822-.073 1.728.437.987-.437 1.892s-.034-.01.022.178c.056.19 2.329 1.451 2.473 1.344.144-.109.267-.205.267-.205l-.145-.41.581-.577.219-.576.945-.33.727-1.81-.218-.493.508-.74 1.09-.248.582-1.316-.145-1.645.872-1.234.145-1.235c-1.193-.59-2.376-1.2-3.561-1.81"
                color="#000"
              ></path>
            </g>
          </g>
          <g>
            <g fill="url(#radialGradient4756)" color="#000">
              <path
                fill="url(#radialGradient4756)"
                d="M16.766 9.565l.726.494h.582v-.576l-.726-.33-.582.412"
                color="#000"
              ></path>
            </g>
          </g>
          <g>
            <g fill="url(#radialGradient4756)" color="#000">
              <path
                fill="url(#radialGradient4756)"
                d="M14.876 8.907l-.364.905h.727l.364-.823c.314-.222.626-.445.945-.658l.727.247c.484.33.969.658 1.454.987l.727-.658-.8-.329-.364-.74-1.381-.165-.073-.412-.654.165-.29.576-.364-.74-.145.328.073.823-.582.494"
                color="#000"
              ></path>
            </g>
          </g>
          <g>
            <g fill="url(#radialGradient4756)" color="#000">
              <path
                fill="url(#radialGradient4756)"
                d="M17.492 6.85l.364-.329.727-.165c.498-.242.998-.405 1.527-.576l-.29-.494-.939.135-.443.442-.731.106-.65.305-.316.153-.193.259.944.164"
                color="#000"
              ></path>
            </g>
          </g>
          <g>
            <g fill="url(#radialGradient4756)" color="#000">
              <path
                fill="url(#radialGradient4756)"
                d="M18.728 14.666l.437-.658-.655-.493.218 1.151"
                color="#000"
              ></path>
            </g>
          </g>
        </g>
        <path
          fill="none"
          stroke="url(#radialGradient4132)"
          d="M42.975 23.486c0 10.165-8.241 18.406-18.406 18.406S6.163 33.651 6.163 23.486c0-10.166 8.241-18.406 18.406-18.406s18.406 8.24 18.406 18.406z"
        ></path>
      </g>
    </svg>