<?xml version="1.0" encoding="utf-8"?><svg version="1.1" id="Layer_1" xmlns="http://www.w3.org/2000/svg" xmlns:xlink="http://www.w3.org/1999/xlink" x="0px" y="0px" viewBox="0 0 104.69 122.88" style="enable-background:new 0 0 104.69 122.88" xml:space="preserve"><g><path d="M31.54,86.92c-1.74,0-3.15-1.41-3.15-3.15c0-1.74,1.41-3.15,3.15-3.15H55c1.74,0,3.15,1.41,3.15,3.15 c0,1.74-1.41,3.15-3.15,3.15H31.54L31.54,86.92z M31.54,42.27c-1.74,0-3.15-1.41-3.15-3.15c0-1.74,1.41-3.15,3.15-3.15h41.61 c1.74,0,3.15,1.41,3.15,3.15c0,1.74-1.41,3.15-3.15,3.15H31.54L31.54,42.27z M7.33,0h90.02c2.02,0,3.85,0.82,5.18,2.15 c1.33,1.33,2.15,3.16,2.15,5.18v108.21c0,2.02-0.82,3.85-2.15,5.18c-1.33,1.33-3.16,2.15-5.18,2.15H7.33 c-2.02,0-3.85-0.82-5.18-2.15C0.82,119.4,0,117.57,0,115.55V7.33c0-2.02,0.82-3.85,2.15-5.18C3.48,0.82,5.31,0,7.33,0L7.33,0z M97.36,6.3H7.33c-0.28,0-0.54,0.12-0.73,0.3C6.42,6.8,6.3,7.05,6.3,7.33v108.21c0,0.28,0.12,0.54,0.31,0.72 c0.19,0.19,0.45,0.31,0.73,0.31h90.02c0.28,0,0.54-0.12,0.72-0.31c0.19-0.19,0.31-0.45,0.31-0.72V7.33c0-0.28-0.12-0.54-0.31-0.73 C97.89,6.42,97.64,6.3,97.36,6.3L97.36,6.3z M31.54,64.59c-1.74,0-3.15-1.41-3.15-3.15c0-1.74,1.41-3.15,3.15-3.15h41.61 c1.74,0,3.15,1.41,3.15,3.15c0,1.74-1.41,3.15-3.15,3.15H31.54L31.54,64.59z"/></g></svg>